{
  "asset": {
    "version": "2.0"
  },
  "buffers": [
    {
      "uri": "baked_mesh.bin",
      "byteLength": 216860
    }
  ],
  "bufferViews": [
    {
      "buffer": 0,
      "byteOffset": 0,
      "byteLength": 106596,
      "target": 34962
    },
    {
      "buffer": 0,
      "byteOffset": 106596,
      "byteLength": 71064,
      "target": 34962
    },
    {
      "buffer": 0,
      "byteOffset": 177660,
      "byteLength": 39198,
      "target": 34963
    }
  ],
  "accessors": [
    {
      "bufferView": 0,
      "byteOffset": 0,
      "componentType": 5126,
      "count": 8883,
      "type": "VEC3",
      "min": [
        -0.022275447845458984,
        0.0,
        -7.520749568939209
      ],
      "max": [
        10.020751953125,
        7.355889320373535,
        7.520749568939209
      ]
    },
    {
      "bufferView": 1,
      "byteOffset": 0,
      "componentType": 5126,
      "count": 8883,
      "type": "VEC2"
    },
    {
      "bufferView": 2,
      "byteOffset": 0,
      "componentType": 5123,
      "count": 19599,
      "type": "SCALAR"
    }
  ],
  "samplers": [
    {
      "magFilter": 9729,
      "minFilter": 9987,
      "wrapS": 10497,
      "wrapT": 10497
    }
  ],
  "images": [
    {
      "uri": "texture_base.png"
    }
  ],
  "textures": [
    {
      "sampler": 0,
      "source": 0
    }
  ],
  "materials": [
    {
      "name": "baked_mat_0",
      "pbrMetallicRoughness": {
        "baseColorTexture": {
          "index": 0
        },
        "metallicFactor": 0.0,
        "roughnessFactor": 1.0
      },
      "doubleSided": true
    }
  ],
  "meshes": [
    {
      "name": "baked_mesh",
      "primitives": [
        {
          "attributes": {
            "POSITION": 0,
            "TEXCOORD_0": 1
          },
          "indices": 2,
          "material": 0,
          "mode": 4
        }
      ]
    }
  ],
  "nodes": [
    {
      "name": "root",
      "mesh": 0
    }
  ],
  "scenes": [
    {
      "nodes": [
        0
      ]
    }
  ],
  "scene": 0
}