{
	"asset":
	{
		"version": "2.0",
		"generator": "Unreal Engine 5.6.1"
	},
	"scene": 0,
	"accessors": [
		{
			"bufferView": 0,
			"count": 1980,
			"type": "SCALAR",
			"componentType": 5123
		},
		{
			"bufferView": 1,
			"count": 876,
			"type": "VEC3",
			"componentType": 5126,
			"min": [ -0.0100003053, 0, -5.00999975 ],
			"max": [ 10.0100002, 6, 7.50999975 ]
		},
		{
			"bufferView": 2,
			"count": 876,
			"type": "VEC3",
			"componentType": 5126
		},
		{
			"bufferView": 3,
			"count": 876,
			"type": "VEC4",
			"componentType": 5126
		},
		{
			"bufferView": 4,
			"count": 876,
			"type": "VEC2",
			"componentType": 5126
		},
		{
			"bufferView": 5,
			"count": 876,
			"type": "VEC2",
			"componentType": 5126
		},
		{
			"bufferView": 6,
			"count": 11712,
			"type": "SCALAR",
			"componentType": 5123
		},
		{
			"bufferView": 7,
			"count": 5124,
			"type": "VEC3",
			"componentType": 5126,
			"min": [ 0.024993591, 0.099999994, -4.97746086 ],
			"max": [ 9.97500706, 5.50500011, 7.47749615 ]
		},
		{
			"bufferView": 8,
			"count": 5124,
			"type": "VEC3",
			"componentType": 5126
		},
		{
			"bufferView": 9,
			"count": 5124,
			"type": "VEC4",
			"componentType": 5126
		},
		{
			"bufferView": 10,
			"count": 5124,
			"type": "VEC2",
			"componentType": 5126
		},
		{
			"bufferView": 11,
			"count": 5124,
			"type": "VEC2",
			"componentType": 5126
		},
		{
			"bufferView": 12,
			"count": 72,
			"type": "SCALAR",
			"componentType": 5121
		},
		{
			"bufferView": 13,
			"count": 48,
			"type": "VEC3",
			"componentType": 5126,
			"min": [ -0.0167242419, 0, 0.647499979 ],
			"max": [ 10.0167246, 0.099999994, 1.85249996 ]
		},
		{
			"bufferView": 14,
			"count": 48,
			"type": "VEC3",
			"componentType": 5126
		},
		{
			"bufferView": 15,
			"count": 48,
			"type": "VEC4",
			"componentType": 5126
		},
		{
			"bufferView": 16,
			"count": 48,
			"type": "VEC2",
			"componentType": 5126
		},
		{
			"bufferView": 17,
			"count": 48,
			"type": "VEC2",
			"componentType": 5126
		},
		{
			"bufferView": 18,
			"count": 246,
			"type": "SCALAR",
			"componentType": 5121
		},
		{
			"bufferView": 19,
			"count": 138,
			"type": "VEC3",
			"componentType": 5126,
			"min": [ 0.0578344725, 1.0706284, -4.94216537 ],
			"max": [ 9.94216537, 5.43621588, 7.44216537 ]
		},
		{
			"bufferView": 20,
			"count": 138,
			"type": "VEC3",
			"componentType": 5126
		},
		{
			"bufferView": 21,
			"count": 138,
			"type": "VEC4",
			"componentType": 5126
		},
		{
			"bufferView": 22,
			"count": 138,
			"type": "VEC2",
			"componentType": 5126
		},
		{
			"bufferView": 23,
			"count": 138,
			"type": "VEC2",
			"componentType": 5126
		},
		{
			"bufferView": 24,
			"count": 1848,
			"type": "SCALAR",
			"componentType": 5123
		},
		{
			"bufferView": 25,
			"count": 486,
			"type": "VEC3",
			"componentType": 5126,
			"min": [ 0.39798063, 0.933807075, 0.781843245 ],
			"max": [ 9.60201836, 0.99138993, 1.7181567 ]
		},
		{
			"bufferView": 26,
			"count": 486,
			"type": "VEC3",
			"componentType": 5126
		},
		{
			"bufferView": 27,
			"count": 486,
			"type": "VEC4",
			"componentType": 5126
		},
		{
			"bufferView": 28,
			"count": 486,
			"type": "VEC2",
			"componentType": 5126
		},
		{
			"bufferView": 29,
			"count": 486,
			"type": "VEC2",
			"componentType": 5126
		},
		{
			"bufferView": 30,
			"count": 900,
			"type": "SCALAR",
			"componentType": 5123
		},
		{
			"bufferView": 31,
			"count": 600,
			"type": "VEC3",
			"componentType": 5126,
			"min": [ -0.536864638, 6.06393051, -5.53686523 ],
			"max": [ 10.5368652, 7.51899099, 8.03686523 ]
		},
		{
			"bufferView": 32,
			"count": 600,
			"type": "VEC3",
			"componentType": 5126
		},
		{
			"bufferView": 33,
			"count": 600,
			"type": "VEC4",
			"componentType": 5126
		},
		{
			"bufferView": 34,
			"count": 600,
			"type": "VEC2",
			"componentType": 5126
		},
		{
			"bufferView": 35,
			"count": 600,
			"type": "VEC2",
			"componentType": 5126
		},
		{
			"bufferView": 36,
			"count": 5160,
			"type": "SCALAR",
			"componentType": 5123
		},
		{
			"bufferView": 37,
			"count": 3424,
			"type": "VEC3",
			"componentType": 5126,
			"min": [ -0.535731494, 6, -5.53573227 ],
			"max": [ 10.5357313, 7.5, 8.03573132 ]
		},
		{
			"bufferView": 38,
			"count": 3424,
			"type": "VEC3",
			"componentType": 5126
		},
		{
			"bufferView": 39,
			"count": 3424,
			"type": "VEC4",
			"componentType": 5126
		},
		{
			"bufferView": 40,
			"count": 3424,
			"type": "VEC2",
			"componentType": 5126
		},
		{
			"bufferView": 41,
			"count": 3424,
			"type": "VEC2",
			"componentType": 5126
		},
		{
			"bufferView": 42,
			"count": 24,
			"type": "SCALAR",
			"componentType": 5121
		},
		{
			"bufferView": 43,
			"count": 16,
			"type": "VEC3",
			"componentType": 5126,
			"min": [ 0.5, 7.5, -4.47160387 ],
			"max": [ 9.39577866, 7.5, 7 ]
		},
		{
			"bufferView": 44,
			"count": 16,
			"type": "VEC3",
			"componentType": 5126
		},
		{
			"bufferView": 45,
			"count": 16,
			"type": "VEC4",
			"componentType": 5126
		},
		{
			"bufferView": 46,
			"count": 16,
			"type": "VEC2",
			"componentType": 5126
		},
		{
			"bufferView": 47,
			"count": 16,
			"type": "VEC2",
			"componentType": 5126
		}
	],
	"buffers": [
		{
			"uri": "SM_Bp_Building01_C_1.bin",
			"byteLength": 643416
		}
	],
	"bufferViews": [
		{
			"buffer": 0,
			"byteLength": 3960,
			"target": 34963
		},
		{
			"buffer": 0,
			"byteLength": 10512,
			"byteOffset": 3960,
			"target": 34962
		},
		{
			"buffer": 0,
			"byteLength": 10512,
			"byteOffset": 14472,
			"target": 34962
		},
		{
			"buffer": 0,
			"byteLength": 14016,
			"byteOffset": 24984,
			"target": 34962
		},
		{
			"buffer": 0,
			"byteLength": 7008,
			"byteOffset": 39000,
			"target": 34962
		},
		{
			"buffer": 0,
			"byteLength": 7008,
			"byteOffset": 46008,
			"target": 34962
		},
		{
			"buffer": 0,
			"byteLength": 23424,
			"byteOffset": 53016,
			"target": 34963
		},
		{
			"buffer": 0,
			"byteLength": 61488,
			"byteOffset": 76440,
			"target": 34962
		},
		{
			"buffer": 0,
			"byteLength": 61488,
			"byteOffset": 137928,
			"target": 34962
		},
		{
			"buffer": 0,
			"byteLength": 81984,
			"byteOffset": 199416,
			"target": 34962
		},
		{
			"buffer": 0,
			"byteLength": 40992,
			"byteOffset": 281400,
			"target": 34962
		},
		{
			"buffer": 0,
			"byteLength": 40992,
			"byteOffset": 322392,
			"target": 34962
		},
		{
			"buffer": 0,
			"byteLength": 72,
			"byteOffset": 363384,
			"target": 34963
		},
		{
			"buffer": 0,
			"byteLength": 576,
			"byteOffset": 363456,
			"target": 34962
		},
		{
			"buffer": 0,
			"byteLength": 576,
			"byteOffset": 364032,
			"target": 34962
		},
		{
			"buffer": 0,
			"byteLength": 768,
			"byteOffset": 364608,
			"target": 34962
		},
		{
			"buffer": 0,
			"byteLength": 384,
			"byteOffset": 365376,
			"target": 34962
		},
		{
			"buffer": 0,
			"byteLength": 384,
			"byteOffset": 365760,
			"target": 34962
		},
		{
			"buffer": 0,
			"byteLength": 246,
			"byteOffset": 366144,
			"target": 34963
		},
		{
			"buffer": 0,
			"byteLength": 1656,
			"byteOffset": 366392,
			"target": 34962
		},
		{
			"buffer": 0,
			"byteLength": 1656,
			"byteOffset": 368048,
			"target": 34962
		},
		{
			"buffer": 0,
			"byteLength": 2208,
			"byteOffset": 369704,
			"target": 34962
		},
		{
			"buffer": 0,
			"byteLength": 1104,
			"byteOffset": 371912,
			"target": 34962
		},
		{
			"buffer": 0,
			"byteLength": 1104,
			"byteOffset": 373016,
			"target": 34962
		},
		{
			"buffer": 0,
			"byteLength": 3696,
			"byteOffset": 374120,
			"target": 34963
		},
		{
			"buffer": 0,
			"byteLength": 5832,
			"byteOffset": 377816,
			"target": 34962
		},
		{
			"buffer": 0,
			"byteLength": 5832,
			"byteOffset": 383648,
			"target": 34962
		},
		{
			"buffer": 0,
			"byteLength": 7776,
			"byteOffset": 389480,
			"target": 34962
		},
		{
			"buffer": 0,
			"byteLength": 3888,
			"byteOffset": 397256,
			"target": 34962
		},
		{
			"buffer": 0,
			"byteLength": 3888,
			"byteOffset": 401144,
			"target": 34962
		},
		{
			"buffer": 0,
			"byteLength": 1800,
			"byteOffset": 405032,
			"target": 34963
		},
		{
			"buffer": 0,
			"byteLength": 7200,
			"byteOffset": 406832,
			"target": 34962
		},
		{
			"buffer": 0,
			"byteLength": 7200,
			"byteOffset": 414032,
			"target": 34962
		},
		{
			"buffer": 0,
			"byteLength": 9600,
			"byteOffset": 421232,
			"target": 34962
		},
		{
			"buffer": 0,
			"byteLength": 4800,
			"byteOffset": 430832,
			"target": 34962
		},
		{
			"buffer": 0,
			"byteLength": 4800,
			"byteOffset": 435632,
			"target": 34962
		},
		{
			"buffer": 0,
			"byteLength": 10320,
			"byteOffset": 440432,
			"target": 34963
		},
		{
			"buffer": 0,
			"byteLength": 41088,
			"byteOffset": 450752,
			"target": 34962
		},
		{
			"buffer": 0,
			"byteLength": 41088,
			"byteOffset": 491840,
			"target": 34962
		},
		{
			"buffer": 0,
			"byteLength": 54784,
			"byteOffset": 532928,
			"target": 34962
		},
		{
			"buffer": 0,
			"byteLength": 27392,
			"byteOffset": 587712,
			"target": 34962
		},
		{
			"buffer": 0,
			"byteLength": 27392,
			"byteOffset": 615104,
			"target": 34962
		},
		{
			"buffer": 0,
			"byteLength": 24,
			"byteOffset": 642496,
			"target": 34963
		},
		{
			"buffer": 0,
			"byteLength": 192,
			"byteOffset": 642520,
			"target": 34962
		},
		{
			"buffer": 0,
			"byteLength": 192,
			"byteOffset": 642712,
			"target": 34962
		},
		{
			"buffer": 0,
			"byteLength": 256,
			"byteOffset": 642904,
			"target": 34962
		},
		{
			"buffer": 0,
			"byteLength": 128,
			"byteOffset": 643160,
			"target": 34962
		},
		{
			"buffer": 0,
			"byteLength": 128,
			"byteOffset": 643288,
			"target": 34962
		}
	],
	"images": [
		{
			"uri": "MI_Wall03_BaseColor.png"
		},
		{
			"uri": "MI_Wall03_MetallicRoughness.png"
		},
		{
			"uri": "MI_Wall03_Normal.png"
		},
		{
			"uri": "MI_Plaster_BaseColor.png"
		},
		{
			"uri": "MI_Plaster_MetallicRoughness.png"
		},
		{
			"uri": "MI_Plaster_Normal.png"
		},
		{
			"uri": "MI_Ground_BaseColor.png"
		},
		{
			"uri": "MI_Ground_MetallicRoughness.png"
		},
		{
			"uri": "MI_Ground_Normal.png"
		},
		{
			"uri": "MI_Glass_BaseColor.png"
		},
		{
			"uri": "MI_Glass_MetallicRoughness.png"
		},
		{
			"uri": "MI_Glass_Normal.png"
		},
		{
			"uri": "MI_DirtyMetal_BaseColor.png"
		},
		{
			"uri": "MI_DirtyMetal_MetallicRoughness.png"
		},
		{
			"uri": "MI_DirtyMetal_Normal.png"
		},
		{
			"uri": "MI_Wall04_BaseColor.png"
		},
		{
			"uri": "MI_Wall04_MetallicRoughness.png"
		},
		{
			"uri": "MI_Wall04_Normal.png"
		},
		{
			"uri": "MI_PlasterWHite_BaseColor.png"
		},
		{
			"uri": "MI_PlasterWHite_MetallicRoughness.png"
		},
		{
			"uri": "MI_PlasterWHite_Normal.png"
		},
		{
			"uri": "MI_Roof01_BaseColor.png"
		},
		{
			"uri": "MI_Roof01_MetallicRoughness.png"
		},
		{
			"uri": "MI_Roof01_Normal.png"
		}
	],
	"materials": [
		{
			"name": "MI_Wall03",
			"pbrMetallicRoughness":
			{
				"baseColorTexture":
				{
					"index": 0
				},
				"metallicRoughnessTexture":
				{
					"index": 1
				}
			},
			"normalTexture":
			{
				"index": 2
			}
		},
		{
			"name": "MI_Plaster",
			"pbrMetallicRoughness":
			{
				"baseColorTexture":
				{
					"index": 3
				},
				"metallicRoughnessTexture":
				{
					"index": 4
				}
			},
			"normalTexture":
			{
				"index": 5
			}
		},
		{
			"name": "MI_Ground",
			"pbrMetallicRoughness":
			{
				"baseColorTexture":
				{
					"index": 6
				},
				"metallicRoughnessTexture":
				{
					"index": 7
				}
			},
			"normalTexture":
			{
				"index": 8
			}
		},
		{
			"name": "MI_Glass",
			"pbrMetallicRoughness":
			{
				"baseColorTexture":
				{
					"index": 9
				},
				"metallicRoughnessTexture":
				{
					"index": 10
				}
			},
			"normalTexture":
			{
				"index": 11
			}
		},
		{
			"name": "MI_DirtyMetal",
			"pbrMetallicRoughness":
			{
				"baseColorTexture":
				{
					"index": 12
				},
				"metallicRoughnessTexture":
				{
					"index": 13
				}
			},
			"normalTexture":
			{
				"index": 14
			}
		},
		{
			"name": "MI_Wall04",
			"pbrMetallicRoughness":
			{
				"baseColorTexture":
				{
					"index": 15
				},
				"metallicRoughnessTexture":
				{
					"index": 16
				}
			},
			"normalTexture":
			{
				"index": 17
			}
		},
		{
			"name": "MI_PlasterWHite",
			"pbrMetallicRoughness":
			{
				"baseColorTexture":
				{
					"index": 18
				},
				"metallicRoughnessTexture":
				{
					"index": 19
				}
			},
			"normalTexture":
			{
				"index": 20
			}
		},
		{
			"name": "MI_Roof01",
			"pbrMetallicRoughness":
			{
				"baseColorTexture":
				{
					"index": 21
				},
				"metallicRoughnessTexture":
				{
					"index": 22
				}
			},
			"normalTexture":
			{
				"index": 23
			}
		}
	],
	"meshes": [
		{
			"name": "SM_Bp_Building01_C_1_Merged",
			"primitives": [
				{
					"attributes":
					{
						"POSITION": 1,
						"NORMAL": 2,
						"TANGENT": 3,
						"TEXCOORD_0": 4,
						"TEXCOORD_1": 5
					},
					"indices": 0,
					"material": 0
				},
				{
					"attributes":
					{
						"POSITION": 7,
						"NORMAL": 8,
						"TANGENT": 9,
						"TEXCOORD_0": 10,
						"TEXCOORD_1": 11
					},
					"indices": 6,
					"material": 1
				},
				{
					"attributes":
					{
						"POSITION": 13,
						"NORMAL": 14,
						"TANGENT": 15,
						"TEXCOORD_0": 16,
						"TEXCOORD_1": 17
					},
					"indices": 12,
					"material": 2
				},
				{
					"attributes":
					{
						"POSITION": 19,
						"NORMAL": 20,
						"TANGENT": 21,
						"TEXCOORD_0": 22,
						"TEXCOORD_1": 23
					},
					"indices": 18,
					"material": 3
				},
				{
					"attributes":
					{
						"POSITION": 25,
						"NORMAL": 26,
						"TANGENT": 27,
						"TEXCOORD_0": 28,
						"TEXCOORD_1": 29
					},
					"indices": 24,
					"material": 4
				},
				{
					"attributes":
					{
						"POSITION": 31,
						"NORMAL": 32,
						"TANGENT": 33,
						"TEXCOORD_0": 34,
						"TEXCOORD_1": 35
					},
					"indices": 30,
					"material": 5
				},
				{
					"attributes":
					{
						"POSITION": 37,
						"NORMAL": 38,
						"TANGENT": 39,
						"TEXCOORD_0": 40,
						"TEXCOORD_1": 41
					},
					"indices": 36,
					"material": 6
				},
				{
					"attributes":
					{
						"POSITION": 43,
						"NORMAL": 44,
						"TANGENT": 45,
						"TEXCOORD_0": 46,
						"TEXCOORD_1": 47
					},
					"indices": 42,
					"material": 7
				}
			]
		}
	],
	"nodes": [
		{
			"mesh": 0
		}
	],
	"samplers": [
		{
			"minFilter": 9987,
			"magFilter": 9729
		}
	],
	"scenes": [
		{
			"nodes": [ 0 ]
		}
	],
	"textures": [
		{
			"name": "MI_Wall03_BaseColor",
			"sampler": 0,
			"source": 0
		},
		{
			"name": "MI_Wall03_MetallicRoughness",
			"sampler": 0,
			"source": 1
		},
		{
			"name": "MI_Wall03_Normal",
			"sampler": 0,
			"source": 2
		},
		{
			"name": "MI_Plaster_BaseColor",
			"sampler": 0,
			"source": 3
		},
		{
			"name": "MI_Plaster_MetallicRoughness",
			"sampler": 0,
			"source": 4
		},
		{
			"name": "MI_Plaster_Normal",
			"sampler": 0,
			"source": 5
		},
		{
			"name": "MI_Ground_BaseColor",
			"sampler": 0,
			"source": 6
		},
		{
			"name": "MI_Ground_MetallicRoughness",
			"sampler": 0,
			"source": 7
		},
		{
			"name": "MI_Ground_Normal",
			"sampler": 0,
			"source": 8
		},
		{
			"name": "MI_Glass_BaseColor",
			"sampler": 0,
			"source": 9
		},
		{
			"name": "MI_Glass_MetallicRoughness",
			"sampler": 0,
			"source": 10
		},
		{
			"name": "MI_Glass_Normal",
			"sampler": 0,
			"source": 11
		},
		{
			"name": "MI_DirtyMetal_BaseColor",
			"sampler": 0,
			"source": 12
		},
		{
			"name": "MI_DirtyMetal_MetallicRoughness",
			"sampler": 0,
			"source": 13
		},
		{
			"name": "MI_DirtyMetal_Normal",
			"sampler": 0,
			"source": 14
		},
		{
			"name": "MI_Wall04_BaseColor",
			"sampler": 0,
			"source": 15
		},
		{
			"name": "MI_Wall04_MetallicRoughness",
			"sampler": 0,
			"source": 16
		},
		{
			"name": "MI_Wall04_Normal",
			"sampler": 0,
			"source": 17
		},
		{
			"name": "MI_PlasterWHite_BaseColor",
			"sampler": 0,
			"source": 18
		},
		{
			"name": "MI_PlasterWHite_MetallicRoughness",
			"sampler": 0,
			"source": 19
		},
		{
			"name": "MI_PlasterWHite_Normal",
			"sampler": 0,
			"source": 20
		},
		{
			"name": "MI_Roof01_BaseColor",
			"sampler": 0,
			"source": 21
		},
		{
			"name": "MI_Roof01_MetallicRoughness",
			"sampler": 0,
			"source": 22
		},
		{
			"name": "MI_Roof01_Normal",
			"sampler": 0,
			"source": 23
		}
	]
}