{
	"asset":
	{
		"version": "2.0",
		"generator": "Unreal Engine 5.6.1"
	},
	"scene": 0,
	"accessors": [
		{
			"bufferView": 0,
			"count": 1728,
			"type": "SCALAR",
			"componentType": 5123
		},
		{
			"bufferView": 1,
			"count": 786,
			"type": "VEC3",
			"componentType": 5126,
			"min": [ 0, -1.93665613e-17, -0.00999999978 ],
			"max": [ 10.0100002, 7.29999924, 7.50999975 ]
		},
		{
			"bufferView": 2,
			"count": 786,
			"type": "VEC3",
			"componentType": 5126
		},
		{
			"bufferView": 3,
			"count": 786,
			"type": "VEC4",
			"componentType": 5126
		},
		{
			"bufferView": 4,
			"count": 786,
			"type": "VEC2",
			"componentType": 5126
		},
		{
			"bufferView": 5,
			"count": 786,
			"type": "VEC2",
			"componentType": 5126
		},
		{
			"bufferView": 6,
			"count": 12732,
			"type": "SCALAR",
			"componentType": 5123
		},
		{
			"bufferView": 7,
			"count": 5764,
			"type": "VEC3",
			"componentType": 5126,
			"min": [ 0.0225390624, 0.099999994, -7.47582245 ],
			"max": [ 9.97746086, 5.50500011, 7.47582245 ]
		},
		{
			"bufferView": 8,
			"count": 5764,
			"type": "VEC3",
			"componentType": 5126
		},
		{
			"bufferView": 9,
			"count": 5764,
			"type": "VEC4",
			"componentType": 5126
		},
		{
			"bufferView": 10,
			"count": 5764,
			"type": "VEC2",
			"componentType": 5126
		},
		{
			"bufferView": 11,
			"count": 5764,
			"type": "VEC2",
			"componentType": 5126
		},
		{
			"bufferView": 12,
			"count": 72,
			"type": "SCALAR",
			"componentType": 5121
		},
		{
			"bufferView": 13,
			"count": 48,
			"type": "VEC3",
			"componentType": 5126,
			"min": [ -0.0167236328, -2.83641886e-17, -1.84749997 ],
			"max": [ 0.463222653, 0.099999994, 1.85249996 ]
		},
		{
			"bufferView": 14,
			"count": 48,
			"type": "VEC3",
			"componentType": 5126
		},
		{
			"bufferView": 15,
			"count": 48,
			"type": "VEC4",
			"componentType": 5126
		},
		{
			"bufferView": 16,
			"count": 48,
			"type": "VEC2",
			"componentType": 5126
		},
		{
			"bufferView": 17,
			"count": 48,
			"type": "VEC2",
			"componentType": 5126
		},
		{
			"bufferView": 18,
			"count": 1902,
			"type": "SCALAR",
			"componentType": 5123
		},
		{
			"bufferView": 19,
			"count": 474,
			"type": "VEC3",
			"componentType": 5126,
			"min": [ 0.170483395, 0.122397199, -1.7181567 ],
			"max": [ 0.462519526, 0.99138993, 1.72649896 ]
		},
		{
			"bufferView": 20,
			"count": 474,
			"type": "VEC3",
			"componentType": 5126
		},
		{
			"bufferView": 21,
			"count": 474,
			"type": "VEC4",
			"componentType": 5126
		},
		{
			"bufferView": 22,
			"count": 474,
			"type": "VEC2",
			"componentType": 5126
		},
		{
			"bufferView": 23,
			"count": 474,
			"type": "VEC2",
			"componentType": 5126
		},
		{
			"bufferView": 24,
			"count": 72,
			"type": "SCALAR",
			"componentType": 5121
		},
		{
			"bufferView": 25,
			"count": 20,
			"type": "VEC3",
			"componentType": 5126,
			"min": [ 0.234321281, 0.099999994, 0.758623004 ],
			"max": [ 0.235727534, 2.20000005, 1.74637687 ]
		},
		{
			"bufferView": 26,
			"count": 20,
			"type": "VEC3",
			"componentType": 5126
		},
		{
			"bufferView": 27,
			"count": 20,
			"type": "VEC4",
			"componentType": 5126
		},
		{
			"bufferView": 28,
			"count": 20,
			"type": "VEC2",
			"componentType": 5126
		},
		{
			"bufferView": 29,
			"count": 20,
			"type": "VEC2",
			"componentType": 5126
		},
		{
			"bufferView": 30,
			"count": 309,
			"type": "SCALAR",
			"componentType": 5121
		},
		{
			"bufferView": 31,
			"count": 193,
			"type": "VEC3",
			"componentType": 5126,
			"min": [ 0.0578369126, 1.05541968, -7.44216537 ],
			"max": [ 9.94216728, 5.43621588, 7.44216537 ]
		},
		{
			"bufferView": 32,
			"count": 193,
			"type": "VEC3",
			"componentType": 5126
		},
		{
			"bufferView": 33,
			"count": 193,
			"type": "VEC4",
			"componentType": 5126
		},
		{
			"bufferView": 34,
			"count": 193,
			"type": "VEC2",
			"componentType": 5126
		},
		{
			"bufferView": 35,
			"count": 193,
			"type": "VEC2",
			"componentType": 5126
		},
		{
			"bufferView": 36,
			"count": 1716,
			"type": "SCALAR",
			"componentType": 5123
		},
		{
			"bufferView": 37,
			"count": 786,
			"type": "VEC3",
			"componentType": 5126,
			"min": [ -0.00999999978, -1.93665613e-17, -7.50999975 ],
			"max": [ 10, 7.29999924, 0.00999999978 ]
		},
		{
			"bufferView": 38,
			"count": 786,
			"type": "VEC3",
			"componentType": 5126
		},
		{
			"bufferView": 39,
			"count": 786,
			"type": "VEC4",
			"componentType": 5126
		},
		{
			"bufferView": 40,
			"count": 786,
			"type": "VEC2",
			"componentType": 5126
		},
		{
			"bufferView": 41,
			"count": 786,
			"type": "VEC2",
			"componentType": 5126
		},
		{
			"bufferView": 42,
			"count": 1032,
			"type": "SCALAR",
			"componentType": 5123
		},
		{
			"bufferView": 43,
			"count": 616,
			"type": "VEC3",
			"componentType": 5126,
			"min": [ -0.0222753901, 7, -7.52074957 ],
			"max": [ 10.020752, 7.35588932, 7.52074957 ]
		},
		{
			"bufferView": 44,
			"count": 616,
			"type": "VEC3",
			"componentType": 5126
		},
		{
			"bufferView": 45,
			"count": 616,
			"type": "VEC4",
			"componentType": 5126
		},
		{
			"bufferView": 46,
			"count": 616,
			"type": "VEC2",
			"componentType": 5126
		},
		{
			"bufferView": 47,
			"count": 616,
			"type": "VEC2",
			"componentType": 5126
		},
		{
			"bufferView": 48,
			"count": 36,
			"type": "SCALAR",
			"componentType": 5121
		},
		{
			"bufferView": 49,
			"count": 24,
			"type": "VEC3",
			"componentType": 5126,
			"min": [ 0.049999997, 7, -7.45222616 ],
			"max": [ 9.93964863, 7, 7.39999962 ]
		},
		{
			"bufferView": 50,
			"count": 24,
			"type": "VEC3",
			"componentType": 5126
		},
		{
			"bufferView": 51,
			"count": 24,
			"type": "VEC4",
			"componentType": 5126
		},
		{
			"bufferView": 52,
			"count": 24,
			"type": "VEC2",
			"componentType": 5126
		},
		{
			"bufferView": 53,
			"count": 24,
			"type": "VEC2",
			"componentType": 5126
		}
	],
	"buffers": [
		{
			"uri": "SM_Bp_Building03_C_1.bin",
			"byteLength": 526528
		}
	],
	"bufferViews": [
		{
			"buffer": 0,
			"byteLength": 3456,
			"target": 34963
		},
		{
			"buffer": 0,
			"byteLength": 9432,
			"byteOffset": 3456,
			"target": 34962
		},
		{
			"buffer": 0,
			"byteLength": 9432,
			"byteOffset": 12888,
			"target": 34962
		},
		{
			"buffer": 0,
			"byteLength": 12576,
			"byteOffset": 22320,
			"target": 34962
		},
		{
			"buffer": 0,
			"byteLength": 6288,
			"byteOffset": 34896,
			"target": 34962
		},
		{
			"buffer": 0,
			"byteLength": 6288,
			"byteOffset": 41184,
			"target": 34962
		},
		{
			"buffer": 0,
			"byteLength": 25464,
			"byteOffset": 47472,
			"target": 34963
		},
		{
			"buffer": 0,
			"byteLength": 69168,
			"byteOffset": 72936,
			"target": 34962
		},
		{
			"buffer": 0,
			"byteLength": 69168,
			"byteOffset": 142104,
			"target": 34962
		},
		{
			"buffer": 0,
			"byteLength": 92224,
			"byteOffset": 211272,
			"target": 34962
		},
		{
			"buffer": 0,
			"byteLength": 46112,
			"byteOffset": 303496,
			"target": 34962
		},
		{
			"buffer": 0,
			"byteLength": 46112,
			"byteOffset": 349608,
			"target": 34962
		},
		{
			"buffer": 0,
			"byteLength": 72,
			"byteOffset": 395720,
			"target": 34963
		},
		{
			"buffer": 0,
			"byteLength": 576,
			"byteOffset": 395792,
			"target": 34962
		},
		{
			"buffer": 0,
			"byteLength": 576,
			"byteOffset": 396368,
			"target": 34962
		},
		{
			"buffer": 0,
			"byteLength": 768,
			"byteOffset": 396944,
			"target": 34962
		},
		{
			"buffer": 0,
			"byteLength": 384,
			"byteOffset": 397712,
			"target": 34962
		},
		{
			"buffer": 0,
			"byteLength": 384,
			"byteOffset": 398096,
			"target": 34962
		},
		{
			"buffer": 0,
			"byteLength": 3804,
			"byteOffset": 398480,
			"target": 34963
		},
		{
			"buffer": 0,
			"byteLength": 5688,
			"byteOffset": 402284,
			"target": 34962
		},
		{
			"buffer": 0,
			"byteLength": 5688,
			"byteOffset": 407972,
			"target": 34962
		},
		{
			"buffer": 0,
			"byteLength": 7584,
			"byteOffset": 413660,
			"target": 34962
		},
		{
			"buffer": 0,
			"byteLength": 3792,
			"byteOffset": 421244,
			"target": 34962
		},
		{
			"buffer": 0,
			"byteLength": 3792,
			"byteOffset": 425036,
			"target": 34962
		},
		{
			"buffer": 0,
			"byteLength": 72,
			"byteOffset": 428828,
			"target": 34963
		},
		{
			"buffer": 0,
			"byteLength": 240,
			"byteOffset": 428900,
			"target": 34962
		},
		{
			"buffer": 0,
			"byteLength": 240,
			"byteOffset": 429140,
			"target": 34962
		},
		{
			"buffer": 0,
			"byteLength": 320,
			"byteOffset": 429380,
			"target": 34962
		},
		{
			"buffer": 0,
			"byteLength": 160,
			"byteOffset": 429700,
			"target": 34962
		},
		{
			"buffer": 0,
			"byteLength": 160,
			"byteOffset": 429860,
			"target": 34962
		},
		{
			"buffer": 0,
			"byteLength": 309,
			"byteOffset": 430020,
			"target": 34963
		},
		{
			"buffer": 0,
			"byteLength": 2316,
			"byteOffset": 430332,
			"target": 34962
		},
		{
			"buffer": 0,
			"byteLength": 2316,
			"byteOffset": 432648,
			"target": 34962
		},
		{
			"buffer": 0,
			"byteLength": 3088,
			"byteOffset": 434964,
			"target": 34962
		},
		{
			"buffer": 0,
			"byteLength": 1544,
			"byteOffset": 438052,
			"target": 34962
		},
		{
			"buffer": 0,
			"byteLength": 1544,
			"byteOffset": 439596,
			"target": 34962
		},
		{
			"buffer": 0,
			"byteLength": 3432,
			"byteOffset": 441140,
			"target": 34963
		},
		{
			"buffer": 0,
			"byteLength": 9432,
			"byteOffset": 444572,
			"target": 34962
		},
		{
			"buffer": 0,
			"byteLength": 9432,
			"byteOffset": 454004,
			"target": 34962
		},
		{
			"buffer": 0,
			"byteLength": 12576,
			"byteOffset": 463436,
			"target": 34962
		},
		{
			"buffer": 0,
			"byteLength": 6288,
			"byteOffset": 476012,
			"target": 34962
		},
		{
			"buffer": 0,
			"byteLength": 6288,
			"byteOffset": 482300,
			"target": 34962
		},
		{
			"buffer": 0,
			"byteLength": 2064,
			"byteOffset": 488588,
			"target": 34963
		},
		{
			"buffer": 0,
			"byteLength": 7392,
			"byteOffset": 490652,
			"target": 34962
		},
		{
			"buffer": 0,
			"byteLength": 7392,
			"byteOffset": 498044,
			"target": 34962
		},
		{
			"buffer": 0,
			"byteLength": 9856,
			"byteOffset": 505436,
			"target": 34962
		},
		{
			"buffer": 0,
			"byteLength": 4928,
			"byteOffset": 515292,
			"target": 34962
		},
		{
			"buffer": 0,
			"byteLength": 4928,
			"byteOffset": 520220,
			"target": 34962
		},
		{
			"buffer": 0,
			"byteLength": 36,
			"byteOffset": 525148,
			"target": 34963
		},
		{
			"buffer": 0,
			"byteLength": 288,
			"byteOffset": 525184,
			"target": 34962
		},
		{
			"buffer": 0,
			"byteLength": 288,
			"byteOffset": 525472,
			"target": 34962
		},
		{
			"buffer": 0,
			"byteLength": 384,
			"byteOffset": 525760,
			"target": 34962
		},
		{
			"buffer": 0,
			"byteLength": 192,
			"byteOffset": 526144,
			"target": 34962
		},
		{
			"buffer": 0,
			"byteLength": 192,
			"byteOffset": 526336,
			"target": 34962
		}
	],
	"images": [
		{
			"uri": "MI_Wall_BaseColor.png"
		},
		{
			"uri": "MI_Wall_MetallicRoughness.png"
		},
		{
			"uri": "MI_Wall_Normal.png"
		},
		{
			"uri": "MI_Plaster_BaseColor.png"
		},
		{
			"uri": "MI_Plaster_MetallicRoughness.png"
		},
		{
			"uri": "MI_Plaster_Normal.png"
		},
		{
			"uri": "MI_Ground_BaseColor.png"
		},
		{
			"uri": "MI_Ground_MetallicRoughness.png"
		},
		{
			"uri": "MI_Ground_Normal.png"
		},
		{
			"uri": "MI_DirtyMetal_BaseColor.png"
		},
		{
			"uri": "MI_DirtyMetal_MetallicRoughness.png"
		},
		{
			"uri": "MI_DirtyMetal_Normal.png"
		},
		{
			"uri": "MI_Wood01_BaseColor.png"
		},
		{
			"uri": "MI_Wood01_MetallicRoughness.png"
		},
		{
			"uri": "MI_Wood01_Normal.png"
		},
		{
			"uri": "MI_Glass_BaseColor.png"
		},
		{
			"uri": "MI_Glass_MetallicRoughness.png"
		},
		{
			"uri": "MI_Glass_Normal.png"
		},
		{
			"uri": "MI_Wall03_BaseColor.png"
		},
		{
			"uri": "MI_Wall03_MetallicRoughness.png"
		},
		{
			"uri": "MI_Wall03_Normal.png"
		},
		{
			"uri": "MI_PlasterWHite_BaseColor.png"
		},
		{
			"uri": "MI_PlasterWHite_MetallicRoughness.png"
		},
		{
			"uri": "MI_PlasterWHite_Normal.png"
		},
		{
			"uri": "MI_Roof01_BaseColor.png"
		},
		{
			"uri": "MI_Roof01_MetallicRoughness.png"
		},
		{
			"uri": "MI_Roof01_Normal.png"
		}
	],
	"materials": [
		{
			"name": "MI_Wall",
			"pbrMetallicRoughness":
			{
				"baseColorTexture":
				{
					"index": 0
				},
				"metallicRoughnessTexture":
				{
					"index": 1
				}
			},
			"normalTexture":
			{
				"index": 2
			}
		},
		{
			"name": "MI_Plaster",
			"pbrMetallicRoughness":
			{
				"baseColorTexture":
				{
					"index": 3
				},
				"metallicRoughnessTexture":
				{
					"index": 4
				}
			},
			"normalTexture":
			{
				"index": 5
			}
		},
		{
			"name": "MI_Ground",
			"pbrMetallicRoughness":
			{
				"baseColorTexture":
				{
					"index": 6
				},
				"metallicRoughnessTexture":
				{
					"index": 7
				}
			},
			"normalTexture":
			{
				"index": 8
			}
		},
		{
			"name": "MI_DirtyMetal",
			"pbrMetallicRoughness":
			{
				"baseColorTexture":
				{
					"index": 9
				},
				"metallicRoughnessTexture":
				{
					"index": 10
				}
			},
			"normalTexture":
			{
				"index": 11
			}
		},
		{
			"name": "MI_Wood01",
			"pbrMetallicRoughness":
			{
				"baseColorTexture":
				{
					"index": 12
				},
				"metallicRoughnessTexture":
				{
					"index": 13
				}
			},
			"normalTexture":
			{
				"index": 14
			}
		},
		{
			"name": "MI_Glass",
			"pbrMetallicRoughness":
			{
				"baseColorTexture":
				{
					"index": 15
				},
				"metallicRoughnessTexture":
				{
					"index": 16
				}
			},
			"normalTexture":
			{
				"index": 17
			}
		},
		{
			"name": "MI_Wall03",
			"pbrMetallicRoughness":
			{
				"baseColorTexture":
				{
					"index": 18
				},
				"metallicRoughnessTexture":
				{
					"index": 19
				}
			},
			"normalTexture":
			{
				"index": 20
			}
		},
		{
			"name": "MI_PlasterWHite",
			"pbrMetallicRoughness":
			{
				"baseColorTexture":
				{
					"index": 21
				},
				"metallicRoughnessTexture":
				{
					"index": 22
				}
			},
			"normalTexture":
			{
				"index": 23
			}
		},
		{
			"name": "MI_Roof01",
			"pbrMetallicRoughness":
			{
				"baseColorTexture":
				{
					"index": 24
				},
				"metallicRoughnessTexture":
				{
					"index": 25
				}
			},
			"normalTexture":
			{
				"index": 26
			}
		}
	],
	"meshes": [
		{
			"name": "SM_Bp_Building03_C_1_Merged",
			"primitives": [
				{
					"attributes":
					{
						"POSITION": 1,
						"NORMAL": 2,
						"TANGENT": 3,
						"TEXCOORD_0": 4,
						"TEXCOORD_1": 5
					},
					"indices": 0,
					"material": 0
				},
				{
					"attributes":
					{
						"POSITION": 7,
						"NORMAL": 8,
						"TANGENT": 9,
						"TEXCOORD_0": 10,
						"TEXCOORD_1": 11
					},
					"indices": 6,
					"material": 1
				},
				{
					"attributes":
					{
						"POSITION": 13,
						"NORMAL": 14,
						"TANGENT": 15,
						"TEXCOORD_0": 16,
						"TEXCOORD_1": 17
					},
					"indices": 12,
					"material": 2
				},
				{
					"attributes":
					{
						"POSITION": 19,
						"NORMAL": 20,
						"TANGENT": 21,
						"TEXCOORD_0": 22,
						"TEXCOORD_1": 23
					},
					"indices": 18,
					"material": 3
				},
				{
					"attributes":
					{
						"POSITION": 25,
						"NORMAL": 26,
						"TANGENT": 27,
						"TEXCOORD_0": 28,
						"TEXCOORD_1": 29
					},
					"indices": 24,
					"material": 4
				},
				{
					"attributes":
					{
						"POSITION": 31,
						"NORMAL": 32,
						"TANGENT": 33,
						"TEXCOORD_0": 34,
						"TEXCOORD_1": 35
					},
					"indices": 30,
					"material": 5
				},
				{
					"attributes":
					{
						"POSITION": 37,
						"NORMAL": 38,
						"TANGENT": 39,
						"TEXCOORD_0": 40,
						"TEXCOORD_1": 41
					},
					"indices": 36,
					"material": 6
				},
				{
					"attributes":
					{
						"POSITION": 43,
						"NORMAL": 44,
						"TANGENT": 45,
						"TEXCOORD_0": 46,
						"TEXCOORD_1": 47
					},
					"indices": 42,
					"material": 7
				},
				{
					"attributes":
					{
						"POSITION": 49,
						"NORMAL": 50,
						"TANGENT": 51,
						"TEXCOORD_0": 52,
						"TEXCOORD_1": 53
					},
					"indices": 48,
					"material": 8
				}
			]
		}
	],
	"nodes": [
		{
			"mesh": 0
		}
	],
	"samplers": [
		{
			"minFilter": 9987,
			"magFilter": 9729
		}
	],
	"scenes": [
		{
			"nodes": [ 0 ]
		}
	],
	"textures": [
		{
			"name": "MI_Wall_BaseColor",
			"sampler": 0,
			"source": 0
		},
		{
			"name": "MI_Wall_MetallicRoughness",
			"sampler": 0,
			"source": 1
		},
		{
			"name": "MI_Wall_Normal",
			"sampler": 0,
			"source": 2
		},
		{
			"name": "MI_Plaster_BaseColor",
			"sampler": 0,
			"source": 3
		},
		{
			"name": "MI_Plaster_MetallicRoughness",
			"sampler": 0,
			"source": 4
		},
		{
			"name": "MI_Plaster_Normal",
			"sampler": 0,
			"source": 5
		},
		{
			"name": "MI_Ground_BaseColor",
			"sampler": 0,
			"source": 6
		},
		{
			"name": "MI_Ground_MetallicRoughness",
			"sampler": 0,
			"source": 7
		},
		{
			"name": "MI_Ground_Normal",
			"sampler": 0,
			"source": 8
		},
		{
			"name": "MI_DirtyMetal_BaseColor",
			"sampler": 0,
			"source": 9
		},
		{
			"name": "MI_DirtyMetal_MetallicRoughness",
			"sampler": 0,
			"source": 10
		},
		{
			"name": "MI_DirtyMetal_Normal",
			"sampler": 0,
			"source": 11
		},
		{
			"name": "MI_Wood01_BaseColor",
			"sampler": 0,
			"source": 12
		},
		{
			"name": "MI_Wood01_MetallicRoughness",
			"sampler": 0,
			"source": 13
		},
		{
			"name": "MI_Wood01_Normal",
			"sampler": 0,
			"source": 14
		},
		{
			"name": "MI_Glass_BaseColor",
			"sampler": 0,
			"source": 15
		},
		{
			"name": "MI_Glass_MetallicRoughness",
			"sampler": 0,
			"source": 16
		},
		{
			"name": "MI_Glass_Normal",
			"sampler": 0,
			"source": 17
		},
		{
			"name": "MI_Wall03_BaseColor",
			"sampler": 0,
			"source": 18
		},
		{
			"name": "MI_Wall03_MetallicRoughness",
			"sampler": 0,
			"source": 19
		},
		{
			"name": "MI_Wall03_Normal",
			"sampler": 0,
			"source": 20
		},
		{
			"name": "MI_PlasterWHite_BaseColor",
			"sampler": 0,
			"source": 21
		},
		{
			"name": "MI_PlasterWHite_MetallicRoughness",
			"sampler": 0,
			"source": 22
		},
		{
			"name": "MI_PlasterWHite_Normal",
			"sampler": 0,
			"source": 23
		},
		{
			"name": "MI_Roof01_BaseColor",
			"sampler": 0,
			"source": 24
		},
		{
			"name": "MI_Roof01_MetallicRoughness",
			"sampler": 0,
			"source": 25
		},
		{
			"name": "MI_Roof01_Normal",
			"sampler": 0,
			"source": 26
		}
	]
}