{
  "asset": {
    "version": "2.0"
  },
  "buffers": [
    {
      "uri": "baked_mesh.bin",
      "byteLength": 319732
    }
  ],
  "bufferViews": [
    {
      "buffer": 0,
      "byteOffset": 0,
      "byteLength": 159900,
      "target": 34962
    },
    {
      "buffer": 0,
      "byteOffset": 159900,
      "byteLength": 106600,
      "target": 34962
    },
    {
      "buffer": 0,
      "byteOffset": 266500,
      "byteLength": 53232,
      "target": 34963
    }
  ],
  "accessors": [
    {
      "bufferView": 0,
      "byteOffset": 0,
      "componentType": 5126,
      "count": 13325,
      "type": "VEC3",
      "min": [
        -0.036865234375,
        0.0,
        -10.036865234375
      ],
      "max": [
        10.036865234375,
        7.899999618530273,
        10.036865234375
      ]
    },
    {
      "bufferView": 1,
      "byteOffset": 0,
      "componentType": 5126,
      "count": 13325,
      "type": "VEC2"
    },
    {
      "bufferView": 2,
      "byteOffset": 0,
      "componentType": 5123,
      "count": 26616,
      "type": "SCALAR"
    }
  ],
  "samplers": [
    {
      "magFilter": 9729,
      "minFilter": 9987,
      "wrapS": 10497,
      "wrapT": 10497
    }
  ],
  "images": [
    {
      "uri": "texture_base.png"
    }
  ],
  "textures": [
    {
      "sampler": 0,
      "source": 0
    }
  ],
  "materials": [
    {
      "name": "baked_mat_0",
      "pbrMetallicRoughness": {
        "baseColorTexture": {
          "index": 0
        },
        "metallicFactor": 0.0,
        "roughnessFactor": 1.0
      },
      "doubleSided": true
    }
  ],
  "meshes": [
    {
      "name": "baked_mesh",
      "primitives": [
        {
          "attributes": {
            "POSITION": 0,
            "TEXCOORD_0": 1
          },
          "indices": 2,
          "material": 0,
          "mode": 4
        }
      ]
    }
  ],
  "nodes": [
    {
      "name": "root",
      "mesh": 0
    }
  ],
  "scenes": [
    {
      "nodes": [
        0
      ]
    }
  ],
  "scene": 0
}